<svg width="144" height="24" viewBox="0 0 144 24" fill="none" xmlns="http://www.w3.org/2000/svg">
<g id="Vector">
<g id="Vector_2">
<path d="M62.6341 0H142.875C143.496 0 144 0.511675 144 1.14286V22.8571C144 23.4883 143.496 24 142.875 24H62.6341V0Z" fill="#9230E0"/>
<path d="M12.645 18.4171C15.1031 18.4171 17.199 16.9714 18.1822 14.8686H20.8732C19.7348 18.3909 16.5004 20.9143 12.645 20.9143C8.32388 20.9143 4.72725 17.6811 4.13212 13.4491C4.0545 13.0286 4.02863 12.608 4.02863 12.1611C4.02863 11.7406 4.0545 11.3463 4.10625 10.9257C4.70138 6.66743 8.298 3.408 12.645 3.408C16.578 3.408 19.9159 6.06286 20.9509 9.71657H18.3116C17.3801 7.48228 15.2066 5.93143 12.645 5.93143C9.69525 5.93143 7.18538 8.08686 6.642 10.9257C6.56438 11.32 6.51262 11.7406 6.51262 12.1611C6.51262 12.608 6.56438 13.0286 6.642 13.4491C7.23713 16.288 9.69525 18.4171 12.645 18.4171Z" fill="#DAD8DC"/>
<path d="M24.2051 20.9143H26.6891V3.43429H24.2051V20.9143ZM26.6114 3.51314V20.8354H24.2827V3.51314H26.6114ZM24.2051 3.43429H26.6891V20.9143H24.2051V3.43429Z" fill="#DAD8DC"/>
<path d="M29.6752 20.9143V8.77029L32.1592 11.2937V20.9143H29.6752ZM40.8532 3.46057H43.3113V20.8354L29.6752 6.98286V3.43429L40.8532 14.7634V3.46057Z" fill="#DAD8DC"/>
<path d="M49.0827 12.8183V18.4171H61.8132V20.9143H46.5987V7.24571H49.0827V10.2949H60.1313V12.8183H49.0827ZM46.5987 3.46057H61.8132V5.984H46.5987V3.46057Z" fill="#DAD8DC"/>
<path d="M64.8227 20.9143V8.744L67.3067 11.2674V20.9143H64.8227ZM72.5594 11.2411L80.1666 3.51314V20.9143H77.6826V9.61143L74.293 13.0286L73.4909 13.8434L72.5594 14.816L64.8227 6.95657V3.408L72.5594 11.2411Z" fill="#DAD8DC"/>
<path d="M82.8647 20.9143L89.9803 7.90286L91.6104 10.9257L86.1508 20.9143H82.8647ZM94.0686 6.40457L101.96 20.9143H98.7002L92.4126 9.40114L90.7824 6.40457L92.4126 3.408L94.0686 6.40457Z" fill="#DAD8DC"/>
<path d="M107.756 20.9143H105.272V7.24571H107.756V20.9143ZM114.329 5.984H98.9848V3.46057H114.329V5.984Z" fill="#DAD8DC"/>
<path d="M117.317 20.9143H119.801V3.43429H117.317V20.9143ZM119.723 3.51314V20.8354H117.394V3.51314H119.723ZM117.317 3.43429H119.801V20.9143H117.317V3.43429Z" fill="#DAD8DC"/>
<path d="M131.403 18.4171C133.861 18.4171 135.957 16.9714 136.94 14.8686H139.631C138.493 18.3909 135.259 20.9143 131.403 20.9143C127.082 20.9143 123.485 17.6811 122.89 13.4491C122.813 13.0286 122.787 12.608 122.787 12.1611C122.787 11.7406 122.813 11.3463 122.864 10.9257C123.46 6.66743 127.056 3.408 131.403 3.408C135.336 3.408 138.674 6.06286 139.709 9.71657H137.07C136.138 7.48228 133.965 5.93143 131.403 5.93143C128.453 5.93143 125.944 8.08686 125.4 10.9257C125.323 11.32 125.271 11.7406 125.271 12.1611C125.271 12.608 125.323 13.0286 125.4 13.4491C125.995 16.288 128.453 18.4171 131.403 18.4171Z" fill="#DAD8DC"/>
</g>
</g>
</svg>
