<svg width="26" height="26" viewBox="0 0 26 26" fill="none" xmlns="http://www.w3.org/2000/svg">
  <path d="M25 12.988C25 6.37 19.624 1 13 1C6.376 1 1 6.37 1 12.988C1 16.633 2.656 19.918 5.248 22.123C5.272 22.147 5.296 22.147 5.296 22.171C5.512 22.339 5.728 22.507 5.968 22.675C6.088 22.747 6.184 22.8415 6.304 22.9375C8.2871 24.282 10.6281 25.0005 13.024 25C15.4199 25.0005 17.7609 24.282 19.744 22.9375C19.864 22.8655 19.96 22.771 20.08 22.6975C20.296 22.531 20.536 22.363 20.752 22.195C20.776 22.171 20.8 22.171 20.8 22.147C23.344 19.9165 25 16.633 25 12.988ZM13 23.4895C10.744 23.4895 8.68 22.7695 6.976 21.571C7 21.379 7.048 21.1885 7.096 20.9965C7.23901 20.4762 7.44875 19.9765 7.72 19.51C7.984 19.054 8.296 18.646 8.68 18.286C9.04 17.926 9.472 17.5915 9.904 17.3275C10.36 17.0635 10.84 16.8715 11.368 16.7275C11.9001 16.5841 12.4489 16.5119 13 16.513C14.636 16.5014 16.2118 17.129 17.392 18.262C17.944 18.814 18.376 19.462 18.688 20.2045C18.856 20.6365 18.976 21.0925 19.048 21.571C17.2768 22.8162 15.1652 23.4861 13 23.4895ZM9.328 12.3895C9.11653 11.9053 9.01019 11.3818 9.016 10.8535C9.016 10.327 9.112 9.799 9.328 9.319C9.544 8.839 9.832 8.4085 10.192 8.0485C10.552 7.6885 10.984 7.402 11.464 7.186C11.944 6.97 12.472 6.874 13 6.874C13.552 6.874 14.056 6.97 14.536 7.186C15.016 7.402 15.448 7.69 15.808 8.0485C16.168 8.4085 16.456 8.8405 16.672 9.319C16.888 9.799 16.984 10.327 16.984 10.8535C16.984 11.4055 16.888 11.9095 16.672 12.388C16.4635 12.8609 16.1708 13.2919 15.808 13.66C15.4398 14.0222 15.0088 14.3145 14.536 14.5225C13.5442 14.9301 12.4318 14.9301 11.44 14.5225C10.9672 14.3145 10.5362 14.0222 10.168 13.66C9.80472 13.2973 9.51894 12.866 9.328 12.3895ZM20.464 20.3485C20.464 20.3005 20.44 20.2765 20.44 20.2285C20.204 19.4776 19.856 18.7666 19.408 18.1195C18.9595 17.4676 18.4084 16.8926 17.776 16.417C17.293 16.0537 16.7695 15.7476 16.216 15.505C16.4678 15.3389 16.7011 15.1463 16.912 14.9305C17.2698 14.5773 17.584 14.1824 17.848 13.7545C18.3795 12.8812 18.654 11.8757 18.64 10.8535C18.6474 10.0968 18.5004 9.34648 18.208 8.6485C17.9193 7.97596 17.5037 7.36533 16.984 6.85C16.4651 6.34005 15.8543 5.93289 15.184 5.65C14.4849 5.35809 13.7336 5.21161 12.976 5.2195C12.2183 5.21209 11.467 5.35908 10.768 5.6515C10.0919 5.93378 9.47966 6.34958 8.968 6.874C8.45806 7.39238 8.05089 8.00263 7.768 8.6725C7.47557 9.37048 7.32858 10.1208 7.336 10.8775C7.336 11.4055 7.408 11.9095 7.552 12.388C7.696 12.892 7.888 13.348 8.152 13.7785C8.392 14.2105 8.728 14.5945 9.088 14.9545C9.304 15.1705 9.544 15.361 9.808 15.529C9.25275 15.7781 8.72908 16.0923 8.248 16.465C7.624 16.945 7.072 17.5195 6.616 18.1435C6.16339 18.7879 5.81512 19.4997 5.584 20.2525C5.56 20.3005 5.56 20.3485 5.56 20.3725C3.664 18.454 2.488 15.865 2.488 12.988C2.488 7.21 7.216 2.4865 13 2.4865C18.784 2.4865 23.512 7.21 23.512 12.988C23.5089 15.7479 22.413 18.3943 20.464 20.3485Z" fill="#DAD8DC" stroke="#DAD8DC" stroke-width="0.5"/>
</svg>